<svg xmlns="http://www.w3.org/2000/svg" width="640" height="440" viewBox="0 0 640 440"><rect width="640" height="440" fill="#eaf5f2"/><g fill="none" stroke="#cee6df"><circle cx="320" cy="220" r="172"/><circle cx="320" cy="220" r="132"/></g><path d="M140 152H83v115h72m338-86h53v133h-59" fill="none" stroke="#a2cfbf" stroke-width="2"/><circle cx="83" cy="152" r="6" fill="#39bc86"/><rect x="134" y="106" width="371" height="234" rx="18" fill="#c5ddd7"/><rect x="126" y="96" width="371" height="234" rx="18" fill="#07364c"/><path d="M126 139h371" stroke="#2f5669"/><g fill="#4c7180"><circle cx="150" cy="117" r="4"/><circle cx="164" cy="117" r="4"/><circle cx="178" cy="117" r="4"/></g><text x="391" y="121" fill="#80aaa9" font-size="10" font-family="monospace">ST COMMAND</text><path d="m155 174 12 9-12 9" fill="none" stroke="#38cf95" stroke-width="3"/><path d="M183 183h129" stroke="#e4f6f4" stroke-width="6" stroke-linecap="round"/><path d="M155 219h205M155 240h158" stroke="#507886" stroke-width="5" stroke-linecap="round"/><rect x="153" y="270" width="148" height="30" rx="7" fill="#164f5b"/><circle cx="170" cy="285" r="4" fill="#3bc883"/><path d="M184 285h97" stroke="#8dc7c2" stroke-width="4" stroke-linecap="round"/><path d="m437 224 9 25 25 9-25 9-9 25-9-25-25-9 25-9Z" fill="#3bc883"/><text x="30" y="408" fill="#507d73" font-size="10" font-family="Arial" letter-spacing="2">CONCEPTO / COMANDOS QUE CONECTAN</text></svg>
